<?xml version="1.0" standalone="no"?>
<!DOCTYPE svg PUBLIC "-//W3C//DTD SVG 20010904//EN"
 "http://www.w3.org/TR/2001/REC-SVG-20010904/DTD/svg10.dtd">
<svg version="1.0" xmlns="http://www.w3.org/2000/svg"
 width="240.000000pt" height="54.000000pt" viewBox="0 0 240.000000 54.000000"
 preserveAspectRatio="xMidYMid meet">
<metadata>
Created by potrace 1.16, written by Peter Selinger 2001-2019
</metadata>
<g transform="translate(0.000000,54.000000) scale(0.100000,-0.100000)"
fill="#000000" stroke="none">
<path d="M239 491 c-16 -16 -29 -39 -29 -50 0 -17 -7 -20 -57 -23 l-58 -3 0
-195 0 -195 205 0 205 0 0 195 0 195 -57 3 c-54 3 -57 5 -63 32 -15 69 -96 91
-146 41z m99 -23 c7 -7 12 -20 12 -30 0 -15 -9 -18 -50 -18 -41 0 -50 3 -50
18 0 25 20 42 50 42 14 0 31 -5 38 -12z m-78 -303 c7 -8 25 -15 40 -15 15 0
33 7 40 15 16 19 40 19 40 1 0 -21 -49 -56 -77 -56 -34 0 -83 31 -83 52 0 22
23 24 40 3z"/>
<path d="M790 260 l0 -130 25 0 c23 0 25 4 25 43 0 59 9 85 32 92 33 11 48
-12 48 -76 0 -56 1 -59 25 -59 24 0 25 2 25 74 0 69 -2 76 -27 96 -26 21 -46
22 -85 5 -16 -6 -18 -1 -18 39 0 42 -2 46 -25 46 l-25 0 0 -130z"/>
<path d="M622 304 c-25 -17 -30 -65 -8 -83 8 -7 30 -15 50 -18 21 -3 36 -11
36 -19 0 -17 -33 -18 -62 -3 -18 9 -24 8 -35 -6 -11 -16 -10 -20 8 -33 11 -7
41 -14 67 -14 36 0 51 5 64 22 10 12 18 27 18 34 0 27 -31 54 -70 60 -39 6
-52 20 -27 29 6 2 22 1 34 -4 15 -5 25 -3 34 8 30 35 -64 59 -109 27z"/>
<path d="M1070 313 c-63 -25 -83 -111 -35 -158 34 -34 103 -35 142 -1 38 33
39 95 2 131 -25 25 -80 40 -109 28z m68 -55 c30 -30 3 -83 -39 -76 -32 5 -45
31 -31 62 13 28 49 35 70 14z"/>
<path d="M1321 311 c-8 -5 -29 -7 -48 -4 l-33 6 0 -132 0 -131 30 0 c29 0 30
1 30 52 0 40 3 49 12 40 18 -18 72 -14 100 8 30 23 39 60 26 106 -13 49 -78
79 -117 55z m57 -53 c28 -28 7 -78 -33 -78 -27 0 -45 18 -45 45 0 27 18 45 45
45 12 0 26 -5 33 -12z"/>
<path d="M1524 310 c-12 -5 -29 -19 -38 -32 -44 -62 5 -148 84 -148 51 0 81
15 73 36 -4 11 -15 15 -37 11 -35 -5 -76 7 -76 23 0 6 27 10 65 10 62 0 65 1
65 24 0 38 -10 56 -41 71 -31 17 -63 18 -95 5z m84 -57 c2 -9 -9 -13 -37 -13
-39 0 -50 8 -34 24 11 11 66 2 71 -11z"/>
<path d="M1750 313 c-63 -24 -83 -111 -35 -158 26 -27 72 -33 106 -15 13 7 19
7 19 0 0 -5 11 -10 25 -10 25 0 25 1 25 90 l0 91 -32 -2 c-18 -1 -46 1 -63 5
-16 3 -37 3 -45 -1z m75 -63 c15 -17 16 -24 7 -46 -10 -20 -18 -25 -44 -22
-40 4 -56 28 -40 62 14 32 51 35 77 6z"/>
<path d="M1952 304 c-34 -23 -30 -69 8 -89 16 -8 38 -15 49 -15 11 0 23 -5 26
-10 10 -17 -26 -24 -59 -12 -26 10 -33 10 -44 -5 -10 -15 -9 -19 10 -30 13 -7
44 -12 70 -13 37 0 50 5 62 22 32 45 10 80 -56 92 -21 4 -38 11 -38 16 0 11
11 13 52 10 34 -2 47 19 23 37 -25 18 -75 17 -103 -3z"/>
<path d="M2126 253 c46 -102 49 -119 31 -159 -22 -45 -22 -44 12 -44 24 0 31
7 49 48 11 26 36 84 55 130 l36 82 -30 0 c-21 0 -32 -6 -38 -22 -5 -13 -15
-36 -21 -53 l-12 -30 -24 53 c-21 46 -27 52 -54 52 l-30 0 26 -57z"/>
</g>
</svg>
